<svg xmlns="http://www.w3.org/2000/svg" width="512" height="512" viewBox="0 0 512 512">
  <defs>
    <radialGradient id="bg" cx="35%" cy="30%" r="85%">
      <stop offset="0%" stop-color="#34d058"/>
      <stop offset="55%" stop-color="#15803d"/>
      <stop offset="100%" stop-color="#0b4f27"/>
    </radialGradient>
    <radialGradient id="ball" cx="38%" cy="35%" r="70%">
      <stop offset="0%" stop-color="#ffffff"/>
      <stop offset="100%" stop-color="#d7e0d9"/>
    </radialGradient>
  </defs>
  <rect width="512" height="512" fill="url(#bg)"/>
  <g transform="translate(256 256) scale(0.94) translate(-256 -256)">
    <!-- ground arc -->
    <ellipse cx="256" cy="392" rx="150" ry="34" fill="#0b4f27" opacity="0.55"/>
    <!-- flag pole -->
    <rect x="300" y="120" width="12" height="252" rx="6" fill="#f4f4f5"/>
    <!-- pennant flag -->
    <path d="M300 128 L420 158 L300 196 Z" fill="#ef4444"/>
    <path d="M300 128 L420 158 L300 196 Z" fill="#000000" opacity="0.06"/>
    <!-- hole -->
    <ellipse cx="306" cy="372" rx="40" ry="13" fill="#0a3d1f"/>
    <!-- golf ball -->
    <circle cx="196" cy="334" r="62" fill="url(#ball)"/>
    <g fill="#b9c4bd" opacity="0.9">
      <circle cx="180" cy="316" r="6"/>
      <circle cx="206" cy="312" r="6"/>
      <circle cx="224" cy="332" r="6"/>
      <circle cx="170" cy="340" r="6"/>
      <circle cx="196" cy="338" r="6"/>
      <circle cx="216" cy="356" r="6"/>
      <circle cx="186" cy="362" r="6"/>
    </g>
  </g>
</svg>